<svg width="235px" height="74px" xmlns="http://www.w3.org/2000/svg" style="align-content: normal; align-items: normal; align-self: auto; alignment-baseline: auto; animation-delay: 0s; animation-direction: normal; animation-duration: 0s; animation-fill-mode: none; animation-iteration-count: 1; animation-name: none; animation-play-state: running; animation-timing-function: ease; appearance: none; backdrop-filter: none; backface-visibility: visible; background-attachment: scroll; background-blend-mode: normal; background-clip: border-box; background-color: rgba(0, 0, 0, 0); background-image: none; background-origin: padding-box; background-position: 0% 0%; background-repeat: repeat; background-size: auto; baseline-shift: 0px; block-size: 74px; border-block-end-color: rgb(0, 0, 0); border-block-end-style: none; border-block-end-width: 0px; border-block-start-color: rgb(0, 0, 0); border-block-start-style: none; border-block-start-width: 0px; border-bottom-color: rgb(0, 0, 0); border-bottom-left-radius: 0px; border-bottom-right-radius: 0px; border-bottom-style: none; border-bottom-width: 0px; border-collapse: separate; border-image-outset: 0; border-image-repeat: stretch; border-image-slice: 100%; border-image-source: none; border-image-width: 1; border-inline-end-color: rgb(0, 0, 0); border-inline-end-style: none; border-inline-end-width: 0px; border-inline-start-color: rgb(0, 0, 0); border-inline-start-style: none; border-inline-start-width: 0px; border-left-color: rgb(0, 0, 0); border-left-style: none; border-left-width: 0px; border-right-color: rgb(0, 0, 0); border-right-style: none; border-right-width: 0px; border-top-color: rgb(0, 0, 0); border-top-left-radius: 0px; border-top-right-radius: 0px; border-top-style: none; border-top-width: 0px; bottom: auto; box-shadow: none; box-sizing: content-box; break-after: auto; break-before: auto; break-inside: auto; buffered-rendering: auto; caption-side: top; caret-color: rgb(0, 0, 0); clear: none; clip: auto; clip-path: none; clip-rule: nonzero; color: rgb(0, 0, 0); color-interpolation: srgb; color-interpolation-filters: linearrgb; color-rendering: auto; column-count: auto; column-gap: normal; column-rule-color: rgb(0, 0, 0); column-rule-style: none; column-rule-width: 0px; column-span: none; column-width: auto; content: normal; cursor: auto; cx: 0px; cy: 0px; d: none; direction: ltr; display: block; dominant-baseline: auto; empty-cells: show; fill: rgb(0, 0, 0); fill-opacity: 1; fill-rule: nonzero; filter: none; flex-basis: auto; flex-direction: row; flex-grow: 0; flex-shrink: 1; flex-wrap: nowrap; float: none; flood-color: rgb(0, 0, 0); flood-opacity: 1; font-family: &quot;Times New Roman&quot;; font-kerning: auto; font-optical-sizing: auto; font-size: 16px; font-stretch: 100%; font-style: normal; font-variant: normal; font-variant-caps: normal; font-variant-east-asian: normal; font-variant-ligatures: normal; font-variant-numeric: normal; font-weight: 400; grid-auto-columns: auto; grid-auto-flow: row; grid-auto-rows: auto; grid-column-end: auto; grid-column-start: auto; grid-row-end: auto; grid-row-start: auto; grid-template-areas: none; grid-template-columns: none; grid-template-rows: none; height: 74px; hyphens: manual; image-orientation: from-image; image-rendering: auto; inline-size: 235px; inset-block-end: auto; inset-block-start: auto; inset-inline-end: auto; inset-inline-start: auto; isolation: auto; justify-content: normal; justify-items: normal; justify-self: auto; left: auto; letter-spacing: normal; lighting-color: rgb(255, 255, 255); line-break: auto; line-height: normal; list-style-image: none; list-style-position: outside; list-style-type: disc; margin-block-end: 0px; margin-block-start: 0px; margin-bottom: 0px; margin-inline-end: 0px; margin-inline-start: 0px; margin-left: 0px; margin-right: 0px; margin-top: 0px; marker-end: none; marker-mid: none; marker-start: none; mask-type: luminance; max-block-size: none; max-height: none; max-inline-size: none; max-width: none; min-block-size: 0px; min-height: 0px; min-inline-size: 0px; min-width: 0px; mix-blend-mode: normal; object-fit: fill; object-position: 50% 50%; offset-distance: 0px; offset-path: none; offset-rotate: auto 0deg; opacity: 1; order: 0; orphans: 2; outline-color: rgb(0, 0, 0); outline-offset: 0px; outline-style: none; outline-width: 0px; overflow-anchor: auto; overflow-wrap: normal; overflow-x: visible; overflow-y: visible; overscroll-behavior-block: auto; overscroll-behavior-inline: auto; padding-block-end: 0px; padding-block-start: 0px; padding-bottom: 0px; padding-inline-end: 0px; padding-inline-start: 0px; padding-left: 0px; padding-right: 0px; padding-top: 0px; paint-order: normal; perspective: none; perspective-origin: 117.5px 37px; pointer-events: auto; position: static; r: 0px; resize: none; right: auto; row-gap: normal; ruby-position: over; rx: auto; ry: auto; scroll-behavior: auto; scroll-margin-block-end: 0px; scroll-margin-block-start: 0px; scroll-margin-inline-end: 0px; scroll-margin-inline-start: 0px; scroll-padding-block-end: auto; scroll-padding-block-start: auto; scroll-padding-inline-end: auto; scroll-padding-inline-start: auto; shape-image-threshold: 0; shape-margin: 0px; shape-outside: none; shape-rendering: auto; speak: normal; stop-color: rgb(0, 0, 0); stop-opacity: 1; stroke: none; stroke-dasharray: none; stroke-dashoffset: 0px; stroke-linecap: butt; stroke-linejoin: miter; stroke-miterlimit: 4; stroke-opacity: 1; stroke-width: 1px; tab-size: 8; table-layout: auto; text-align: start; text-align-last: auto; text-anchor: start; text-decoration: none solid rgb(0, 0, 0); text-decoration-color: rgb(0, 0, 0); text-decoration-line: none; text-decoration-skip-ink: auto; text-decoration-style: solid; text-indent: 0px; text-overflow: clip; text-rendering: auto; text-shadow: none; text-size-adjust: auto; text-transform: none; text-underline-position: auto; top: auto; touch-action: auto; transform: none; transform-origin: 117.5px 37px; transform-style: flat; transition-delay: 0s; transition-duration: 0s; transition-property: all; transition-timing-function: ease; unicode-bidi: normal; user-select: auto; vector-effect: none; vertical-align: baseline; visibility: visible; white-space: normal; widows: 2; width: 235px; will-change: auto; word-break: normal; word-spacing: 0px; writing-mode: horizontal-tb; x: 0px; y: 0px; z-index: auto; zoom: 5; -webkit-app-region: none; -webkit-border-horizontal-spacing: 0px; -webkit-border-image: none; -webkit-border-vertical-spacing: 0px; -webkit-box-align: stretch; -webkit-box-decoration-break: slice; -webkit-box-direction: normal; -webkit-box-flex: 0; -webkit-box-ordinal-group: 1; -webkit-box-orient: horizontal; -webkit-box-pack: start; -webkit-box-reflect: none; -webkit-font-smoothing: auto; -webkit-highlight: none; -webkit-hyphenate-character: auto; -webkit-line-break: auto; -webkit-line-clamp: none; -webkit-locale: auto; -webkit-mask-box-image: none; -webkit-mask-box-image-outset: 0; -webkit-mask-box-image-repeat: stretch; -webkit-mask-box-image-slice: 0 fill; -webkit-mask-box-image-source: none; -webkit-mask-box-image-width: auto; -webkit-mask-clip: border-box; -webkit-mask-composite: source-over; -webkit-mask-image: none; -webkit-mask-origin: border-box; -webkit-mask-position: 0% 0%; -webkit-mask-repeat: repeat; -webkit-mask-size: auto; -webkit-print-color-adjust: economy; -webkit-rtl-ordering: logical; -webkit-tap-highlight-color: rgba(0, 0, 0, 0.18); -webkit-text-combine: none; -webkit-text-decorations-in-effect: none; -webkit-text-emphasis-color: rgb(0, 0, 0); -webkit-text-emphasis-position: over right; -webkit-text-emphasis-style: none; -webkit-text-fill-color: rgb(0, 0, 0); -webkit-text-orientation: vertical-right; -webkit-text-security: none; -webkit-text-stroke-color: rgb(0, 0, 0); -webkit-text-stroke-width: 0px; -webkit-user-drag: auto; -webkit-user-modify: read-only; -webkit-writing-mode: horizontal-tb;" version="1.1" xmlns:xlink="http://www.w3.org/1999/xlink"><style xmlns="" type="text/css"></style><svg xmlns:xlink="http://www.w3.org/1999/xlink" viewBox="0 0 235 74" version="1.1">
    <!-- Generator: Sketch 53.2 (72643) - https://sketchapp.com -->
    <title>logo</title>
    <desc>Created with Sketch.</desc>
    <defs>
        <linearGradient x1="85.3584292%" y1="85.3516175%" x2="14.644357%" y2="14.6423567%" id="linearGradient-1">
            <stop stop-color="#5444B5" offset="0%"/>
            <stop stop-color="#5348B5" offset="16.84%"/>
            <stop stop-color="#5255B3" offset="34.29%"/>
            <stop stop-color="#4F69B1" offset="52.02%"/>
            <stop stop-color="#4B86AE" offset="69.95%"/>
            <stop stop-color="#45ABA9" offset="87.85%"/>
            <stop stop-color="#41C9A6" offset="100%"/>
        </linearGradient>
    </defs>
    <g id="Page-1" stroke="none" stroke-width="1" fill="none" fill-rule="evenodd">
        <g id="HOME-" transform="translate(-250.000000, -17.000000)" fill-rule="nonzero">
            <g id="navbar" transform="translate(250.000000, 17.000000)">
                <g id="logo">
                    <g id="Group" transform="translate(92.473273, 25.123355)" fill="#000000">
                        <g>
                            <path d="M34.8171053,23.4197985 L35.2480674,23.4197985 C42.0912829,23.4197985 46.5129934,18.8289885 46.5129934,11.7248766 C46.5129934,4.6207648 42.0912829,0.0289884868 35.2480674,0.0289884868 L34.8171053,0.0289884868 C27.9738898,0.0289884868 23.5521793,4.61979852 23.5521793,11.7239104 C23.5521793,18.8280222 27.9738898,23.4197985 34.8171053,23.4197985 Z M34.8171053,4.91258224 L35.2480674,4.91258224 C38.9740543,4.91258224 41.1984375,7.45873766 41.1984375,11.7239104 C41.1984375,15.9890831 38.9740543,18.5352385 35.2480674,18.5352385 L34.8171053,18.5352385 C31.0911184,18.5352385 28.8667352,15.9890831 28.8667352,11.7239104 C28.8667352,7.45873766 31.0911184,4.91258224 34.8171053,4.91258224 Z" id="Shape"/>
                            <path d="M70.3231702,22.9898026 L70.3231702,9.57296464 C70.3231702,3.50760691 67.0010896,0.0299547697 61.2101563,0.0299547697 C57.715111,0.0299547697 55.8173314,1.63881579 55.1013158,2.42150493 L53.6113076,0.459950658 L49.9461965,0.459950658 L49.9461965,22.9898026 L55.2607525,22.9898026 L55.2607525,11.7239104 C55.2607525,7.07705592 57.0145559,4.91258224 60.7811266,4.91258224 C64.4607319,4.91258224 65.0105469,7.83172286 65.0105469,9.57199836 L65.0105469,22.9888363 L70.3231702,22.9888363 L70.3231702,22.9898026 Z" id="Path"/>
                            <polygon id="Path" points="118.165769 4.61689967 118.165769 0.458984375 114.833059 0.458984375 107.977282 7.77277961 101.121505 0.458984375 97.7878289 0.458984375 97.7878289 4.61689967 104.674527 11.5035979 97.3578331 18.8318873 97.3578331 22.9898026 100.68861 22.9898026 107.977282 15.2450452 115.264988 22.9898026 118.595765 22.9898026 118.595765 18.8318873 111.280037 11.5151933"/>
                            <path d="M138.303104,0.458984375 L137.349383,2.42537007 C135.968565,0.916036184 133.570251,0.0280222039 130.810547,0.0280222039 C125.417722,0.0280222039 119.976583,3.64481908 119.976583,11.7229441 C119.976583,19.8010691 125.417722,23.417866 130.810547,23.417866 C133.570251,23.417866 135.968565,22.529852 137.349383,21.0205181 L138.303104,22.9869038 L142.506435,22.9869038 L142.506435,0.458984375 L138.303104,0.458984375 Z M131.241509,18.5362048 C127.515522,18.5362048 125.291139,15.9900493 125.291139,11.7239104 C125.291139,7.45873766 127.515522,4.91258224 131.241509,4.91258224 C135.190707,4.91258224 137.192845,7.20460526 137.192845,11.7239104 C137.192845,15.9900493 134.968462,18.5362048 131.241509,18.5362048 Z" id="Shape"/>
                            <path d="M15.9311061,15.0846423 C15.5436266,17.4075863 14.017866,18.5362048 11.2639597,18.5362048 C7.31476151,18.5362048 5.31262336,16.2441817 5.31262336,11.7248766 C5.31262336,7.20460526 7.31476151,4.91354852 11.2639597,4.91354852 C14.0168997,4.91354852 15.5436266,6.04216694 15.9311061,8.36511102 L15.964926,8.70427632 L21.2543586,8.70427632 L21.2369655,8.24335938 C20.7702508,2.18090049 15.5735814,0.0299547697 11.264926,0.0299547697 C4.21106086,0.0299547697 -2.27373675e-13,4.40238487 -2.27373675e-13,11.7248766 C-2.27373675e-13,19.0473684 4.21106086,23.4197985 11.264926,23.4197985 C15.5735814,23.4197985 20.7712171,21.2688528 21.2369655,15.2063939 L21.2678865,14.745477 L15.9765214,14.745477 L15.9311061,15.0846423 Z" id="Path"/>
                        </g>
                        <g>
                            <path d="M34.8171053,23.4197985 L35.2480674,23.4197985 C42.0912829,23.4197985 46.5129934,18.8289885 46.5129934,11.7248766 C46.5129934,4.6207648 42.0912829,0.0289884868 35.2480674,0.0289884868 L34.8171053,0.0289884868 C27.9738898,0.0289884868 23.5521793,4.61979852 23.5521793,11.7239104 C23.5521793,18.8280222 27.9738898,23.4197985 34.8171053,23.4197985 Z M34.8171053,4.91258224 L35.2480674,4.91258224 C38.9740543,4.91258224 41.1984375,7.45873766 41.1984375,11.7239104 C41.1984375,15.9890831 38.9740543,18.5352385 35.2480674,18.5352385 L34.8171053,18.5352385 C31.0911184,18.5352385 28.8667352,15.9890831 28.8667352,11.7239104 C28.8667352,7.45873766 31.0911184,4.91258224 34.8171053,4.91258224 Z" id="Shape"/>
                            <path d="M70.3231702,22.9898026 L70.3231702,9.57296464 C70.3231702,3.50760691 67.0010896,0.0299547697 61.2101563,0.0299547697 C57.715111,0.0299547697 55.8173314,1.63881579 55.1013158,2.42150493 L53.6113076,0.459950658 L49.9461965,0.459950658 L49.9461965,22.9898026 L55.2607525,22.9898026 L55.2607525,11.7239104 C55.2607525,7.07705592 57.0145559,4.91258224 60.7811266,4.91258224 C64.4607319,4.91258224 65.0105469,7.83172286 65.0105469,9.57199836 L65.0105469,22.9888363 L70.3231702,22.9888363 L70.3231702,22.9898026 Z" id="Path"/>
                            <polygon id="Path" points="118.165769 4.61689967 118.165769 0.458984375 114.833059 0.458984375 107.977282 7.77277961 101.121505 0.458984375 97.7878289 0.458984375 97.7878289 4.61689967 104.674527 11.5035979 97.3578331 18.8318873 97.3578331 22.9898026 100.68861 22.9898026 107.977282 15.2450452 115.264988 22.9898026 118.595765 22.9898026 118.595765 18.8318873 111.280037 11.5151933"/>
                            <path d="M138.303104,0.458984375 L137.349383,2.42537007 C135.968565,0.916036184 133.570251,0.0280222039 130.810547,0.0280222039 C125.417722,0.0280222039 119.976583,3.64481908 119.976583,11.7229441 C119.976583,19.8010691 125.417722,23.417866 130.810547,23.417866 C133.570251,23.417866 135.968565,22.529852 137.349383,21.0205181 L138.303104,22.9869038 L142.506435,22.9869038 L142.506435,0.458984375 L138.303104,0.458984375 Z M131.241509,18.5362048 C127.515522,18.5362048 125.291139,15.9900493 125.291139,11.7239104 C125.291139,7.45873766 127.515522,4.91258224 131.241509,4.91258224 C135.190707,4.91258224 137.192845,7.20460526 137.192845,11.7239104 C137.192845,15.9900493 134.968462,18.5362048 131.241509,18.5362048 Z" id="Shape"/>
                            <path d="M15.9311061,15.0846423 C15.5436266,17.4075863 14.017866,18.5362048 11.2639597,18.5362048 C7.31476151,18.5362048 5.31262336,16.2441817 5.31262336,11.7248766 C5.31262336,7.20460526 7.31476151,4.91354852 11.2639597,4.91354852 C14.0168997,4.91354852 15.5436266,6.04216694 15.9311061,8.36511102 L15.964926,8.70427632 L21.2543586,8.70427632 L21.2369655,8.24335938 C20.7702508,2.18090049 15.5735814,0.0299547697 11.264926,0.0299547697 C4.21106086,0.0299547697 -2.27373675e-13,4.40238487 -2.27373675e-13,11.7248766 C-2.27373675e-13,19.0473684 4.21106086,23.4197985 11.264926,23.4197985 C15.5735814,23.4197985 20.7712171,21.2688528 21.2369655,15.2063939 L21.2678865,14.745477 L15.9765214,14.745477 L15.9311061,15.0846423 Z" id="Path"/>
                        </g>
                        <path d="M89.2584498,16.2712377 C88.5066817,18.1506579 86.8833265,18.5362048 84.8676604,18.5362048 C79.9666735,18.5362048 79.4129934,15.0469572 79.3540502,14.0787418 L79.3540502,13.9511924 L95.239741,13.9511924 L95.2716283,11.7248766 C95.2716283,4.40141859 91.2209704,0.0299547697 84.4366982,0.0299547697 C77.652426,0.0299547697 73.6027344,4.40238487 73.6027344,11.7248766 C73.6027344,19.0473684 77.8137952,23.4197985 84.8676604,23.4197985 C90.9552426,23.4197985 94.3700863,19.7034745 94.7681949,16.5215049 L94.8184416,16.0422286 L89.3396176,16.0422286 L89.2584498,16.2712377 Z M79.350185,9.36714638 C79.401398,7.87713816 80.0555715,4.91258224 84.4366982,4.91258224 C88.8187911,4.91258224 89.4719984,7.87713816 89.5232113,9.36714638 L89.5232113,9.49856086 L79.350185,9.49856086 L79.350185,9.36714638 L79.350185,9.36714638 Z" id="Shape"/>
                    </g>
                    <g id="Group">
                        <path d="M50.8168174,72.3629934 L22.8738487,72.3629934 C22.3994038,72.3629934 21.9452508,72.1765008 21.6099507,71.8412007 L1.85912829,52.0884457 C1.69196135,51.9232113 1.55764803,51.7241571 1.46681743,51.4990132 C1.37115543,51.2738692 1.3276727,51.0371299 1.3276727,50.8023232 L1.3276727,22.8873766 C1.3276727,22.6689967 1.36632401,22.4515831 1.44266036,22.2409334 C1.44266036,22.2409334 1.44749178,22.2409334 1.44749178,22.2390008 L1.44749178,22.2370683 C1.44749178,22.2351357 1.44749178,22.2322368 1.44749178,22.2303043 L1.44749178,22.2303043 C1.45232319,22.2283717 1.45232319,22.2254729 1.45232319,22.2235403 L1.45232319,22.2235403 C1.45232319,22.2216077 1.45232319,22.2187089 1.45715461,22.2167763 L1.45715461,22.2148437 C1.45715461,22.2100123 1.46198602,22.2051809 1.46198602,22.2003495 L1.46198602,22.2003495 C1.46198602,22.1955181 1.46681743,22.1906867 1.46681743,22.1858553 L1.46681743,22.1839227 C1.47164885,22.1819901 1.47164885,22.1790913 1.47164885,22.1771587 L1.47164885,22.1771587 C1.47164885,22.1752262 1.47164885,22.1723273 1.47648026,22.1703947 L1.47648026,22.1703947 C1.47648026,22.1684622 1.47648026,22.1655633 1.47648026,22.1636308 L1.48131168,22.1616982 C1.48131168,22.1597656 1.48131168,22.1597656 1.48131168,22.1568668 L1.48131168,22.1549342 L1.48131168,22.1549342 C1.48614309,22.1530016 1.48614309,22.1481702 1.48614309,22.1452714 L1.48614309,22.1452714 C1.57697368,21.9394531 1.70645559,21.7597245 1.86009457,21.6060855 L21.6099507,1.85622944 C21.9452508,1.52092928 22.4003701,1.33443668 22.8738487,1.33443668 L50.8129523,1.33443668 L50.8177837,1.33443668 C51.272903,1.33443668 51.7280222,1.50643503 52.0768503,1.85139803 C52.0768503,1.85333059 52.0768503,1.85333059 52.0816817,1.85622944 L71.8412007,21.6157484 C72.3484992,22.1259457 72.5021382,22.8941406 72.2238487,23.5599095 C71.9503906,24.227611 71.299116,24.661472 70.5763363,24.661472 L31.7955387,24.661472 L19.6116776,36.8453331 L31.7945724,49.0330592 L70.5763363,49.0330592 C71.299116,49.0330592 71.9503906,49.4669202 72.2238487,50.1346217 C72.5011719,50.8003906 72.3484992,51.5685855 71.8412007,52.0787829 L52.0816817,71.8402344 L52.0816817,71.8402344 L52.0816817,71.8402344 C52.0768503,71.8402344 52.0768503,71.8402344 52.0768503,71.8421669 C52.0768503,71.8421669 52.0768503,71.8421669 52.0768503,71.8440995 C52.0768503,71.8440995 52.0720189,71.8440995 52.0720189,71.8460321 L52.0720189,71.8460321 C52.0720189,71.8479646 52.0671875,71.8479646 52.0671875,71.8508635 L52.0671875,71.8508635 C51.7367188,72.1745683 51.3154194,72.3436678 50.8844572,72.3610609 L50.8844572,72.3610609 C50.8796258,72.3610609 50.8796258,72.3610609 50.8796258,72.3610609 C50.8796258,72.3610609 50.8796258,72.3610609 50.8747944,72.3610609 L50.8747944,72.3610609 C50.8747944,72.3610609 50.8747944,72.3610609 50.869963,72.3610609 L50.869963,72.3610609 C50.8506373,72.3629934 50.8361431,72.3629934 50.8168174,72.3629934 Z M23.6111225,68.795477 L46.5071957,68.795477 L30.3151933,52.6015419 L7.42395148,52.6015419 L23.6111225,68.795477 Z M35.3630551,52.6015419 L50.8168174,68.0553043 L66.2657484,52.6015419 L35.3630551,52.6015419 L35.3630551,52.6015419 Z M7.42395148,49.0330592 L26.7476768,49.0330592 L17.0838816,39.369264 L7.42395148,49.0330592 Z M4.90002056,27.1834704 L4.90002056,46.5071957 L14.5589844,36.8453331 L4.90002056,27.1834704 Z M7.42395148,24.6576069 L17.0829153,34.3214021 L26.7467105,24.6576069 L7.42395148,24.6576069 Z M35.3678865,21.0891242 L66.2667146,21.0891242 L50.8168174,5.63826069 L35.3678865,21.0891242 Z M7.42395148,21.0891242 L30.3200247,21.0891242 L46.5071957,4.89808799 L23.6111225,4.89808799 L7.42395148,21.0891242 Z" id="Shape" fill="url(#linearGradient-1)"/>
                        <g fill="#000000" id="Path">
                            <path d="M22.8738487,0.0106291118 C21.1644942,0.0106291118 19.770148,1.40207648 19.770148,3.11432977 C19.770148,4.82658306 21.163528,6.21803043 22.8738487,6.21803043 C24.5832031,6.21803043 25.9775493,4.82658306 25.9775493,3.11432977 C25.9765831,1.40207648 24.5832031,0.0106291118 22.8738487,0.0106291118 Z"/>
                            <path d="M50.8168174,0.0106291118 C49.107463,0.0106291118 47.7131168,1.40207648 47.7131168,3.11432977 C47.7131168,4.82658306 49.1064967,6.21803043 50.8168174,6.21803043 C52.5271382,6.21803043 53.9205181,4.82658306 53.9205181,3.11432977 C53.9205181,1.40207648 52.5271382,0.0106291118 50.8168174,0.0106291118 Z"/>
                            <path d="M70.5763363,25.9765831 C72.2856908,25.9765831 73.680037,24.5851357 73.680037,22.8728824 C73.680037,21.1606291 72.2866571,19.7691817 70.5763363,19.7691817 C68.8660156,19.7691817 67.4726357,21.1606291 67.4726357,22.8728824 C67.473602,24.5851357 68.8669819,25.9765831 70.5763363,25.9765831 Z"/>
                            <path d="M70.5763363,47.7140831 C68.8669819,47.7140831 67.4726357,49.1055304 67.4726357,50.8177837 C67.4726357,52.530037 68.8660156,53.9234169 70.5763363,53.9234169 C72.2866571,53.9234169 73.680037,52.530037 73.680037,50.8177837 C73.680037,49.1055304 72.2866571,47.7140831 70.5763363,47.7140831 Z"/>
                            <path d="M50.8168174,67.473602 C49.107463,67.473602 47.7131168,68.8669819 47.7131168,70.5792352 C47.7131168,72.2914885 49.1064967,73.6829359 50.8168174,73.6829359 C52.5271382,73.6829359 53.9205181,72.2914885 53.9205181,70.5792352 C53.9205181,68.8669819 52.5271382,67.473602 50.8168174,67.473602 Z"/>
                            <path d="M22.8738487,67.473602 C21.1644942,67.473602 19.770148,68.8669819 19.770148,70.5792352 C19.770148,72.2914885 21.163528,73.6829359 22.8738487,73.6829359 C24.5832031,73.6829359 25.9775493,72.2914885 25.9775493,70.5792352 C25.9765831,68.8669819 24.5832031,67.473602 22.8738487,67.473602 Z"/>
                            <path d="M3.11432977,47.7140831 C1.40497533,47.7140831 0.0106291118,49.1055304 0.0106291118,50.8177837 C0.0106291118,52.530037 1.40400905,53.9234169 3.11432977,53.9234169 C4.82368421,53.9234169 6.21803043,52.530037 6.21803043,50.8177837 C6.21706414,49.1055304 4.82368421,47.7140831 3.11432977,47.7140831 Z"/>
                            <path d="M3.11432977,19.770148 C1.40497533,19.770148 0.0106291118,21.1615954 0.0106291118,22.8738487 C0.0106291118,24.586102 1.40400905,25.9775493 3.11432977,25.9775493 C4.82368421,25.9775493 6.21803043,24.586102 6.21803043,22.8738487 C6.21706414,21.1615954 4.82368421,19.770148 3.11432977,19.770148 Z"/>
                        </g>
                    </g>
                    <g id="Group" transform="translate(94.792352, 55.851151)" fill="#000000">
                        <path d="M0.0859991776,5.51554276 L0.0859991776,0.399074836 L0.945990954,0.399074836 L0.945990954,5.59284539 C0.945990954,6.79490132 1.75090461,7.55536595 3.05248766,7.55536595 C4.35407072,7.55536595 5.15898438,6.79490132 5.15898438,5.59284539 L5.15898438,0.399074836 L6.01897615,0.399074836 L6.01897615,5.51554276 C6.01897615,7.11474095 4.88359375,8.27234786 3.05248766,8.27234786 C1.22138158,8.27234786 0.0859991776,7.11474095 0.0859991776,5.51554276 Z" id="Path"/>
                        <path d="M7.85008224,2.47175164 L8.64436678,2.47175164 L8.64436678,3.43127056 C8.90912829,2.79159128 9.52658306,2.33937089 10.5083265,2.33937089 C11.3460938,2.33937089 11.985773,2.75873766 12.3056127,3.44189967 C12.6911595,2.77999589 13.3752878,2.33937089 14.3570312,2.33937089 C15.5919408,2.33937089 16.3862253,3.22158717 16.3862253,4.55602385 L16.3862253,8.1177426 L15.5484581,8.1177426 L15.5484581,4.67680921 C15.5484581,3.7172903 15.0740132,3.06698191 14.1483141,3.06698191 C13.2226151,3.06698191 12.5384868,3.62935855 12.5384868,4.79856086 L12.5384868,8.1177426 L11.7007196,8.1177426 L11.7007196,4.67680921 C11.7007196,3.7172903 11.2262747,3.06698191 10.3005757,3.06698191 C9.37487664,3.06698191 8.69074836,3.62935855 8.69074836,4.79856086 L8.69074836,8.1177426 L7.85298109,8.1177426 L7.85298109,2.47175164 L7.85008224,2.47175164 Z" id="Path"/>
                        <polygon id="Path" points="20.8746094 0.399074836 21.7346012 0.399074836 21.7346012 3.86126645 25.8142475 3.86126645 25.8142475 0.399074836 26.6742393 0.399074836 26.6742393 8.1177426 25.8142475 8.1177426 25.8142475 4.63332648 21.7346012 4.63332648 21.7346012 8.1177426 20.8746094 8.1177426"/>
                        <path d="M33.2150082,8.1177426 L32.4207237,8.1177426 L32.4207237,7.15822368 C32.1559622,7.79790296 31.5162829,8.25012336 30.5345395,8.25012336 C29.2996299,8.25012336 28.5169408,7.39013158 28.5169408,6.03347039 L28.5169408,2.47175164 L29.3547081,2.47175164 L29.3547081,5.91268503 C29.3547081,6.87220395 29.7740748,7.54473684 30.7442229,7.54473684 C31.6708882,7.54473684 32.3762747,6.96013569 32.3762747,5.79093339 L32.3762747,2.47175164 L33.2140419,2.47175164 L33.2140419,8.1177426 L33.2150082,8.1177426 Z" id="Path"/>
                        <path d="M35.8403988,0.0676398026 L35.8403988,3.30951891 C36.182463,2.73651316 36.8434005,2.33937089 37.7256168,2.33937089 C39.1479852,2.33937089 40.0630551,3.39841694 40.0630551,4.86426809 L40.0630551,5.72425987 C40.0630551,7.13599918 39.1924342,8.24915707 37.7033923,8.24915707 C36.7660979,8.24915707 36.0384868,7.75248766 35.7959498,7.23456003 L35.7959498,8.11677632 L35.0016653,8.11677632 L35.0016653,0.0676398026 L35.8403988,0.0676398026 Z M39.2252878,4.89808799 C39.2252878,3.86126645 38.6406867,3.02349918 37.5710115,3.02349918 C36.6337171,3.02349918 35.8394326,3.74048109 35.8394326,4.89808799 L35.8394326,5.62569901 C35.8394326,6.71759868 36.4462582,7.56599507 37.5594161,7.56599507 C38.7286184,7.56599507 39.2243215,6.7282278 39.2243215,5.69140625 L39.2243215,4.89808799 L39.2252878,4.89808799 Z" id="Shape"/>
                        <path d="M49.0079359,0.0676398026 L49.0079359,8.1177426 L48.2136513,8.1177426 L48.2136513,7.23552632 C47.9711143,7.75345395 47.2435033,8.25012336 46.3062089,8.25012336 C44.8171669,8.25012336 43.9465461,7.13599918 43.9465461,5.72522615 L43.9465461,4.86523438 C43.9465461,3.39841694 44.861616,2.34033717 46.2839844,2.34033717 C47.1662007,2.34033717 47.8281044,2.73747944 48.1701686,3.3104852 L48.1701686,0.0676398026 L49.0079359,0.0676398026 Z M44.7843133,5.69140625 C44.7843133,6.7282278 45.2809827,7.56599507 46.4492188,7.56599507 C47.5633429,7.56599507 48.1692023,6.7166324 48.1692023,5.62569901 L48.1692023,4.89808799 C48.1692023,3.74048109 47.3749178,3.02349918 46.4376234,3.02349918 C45.3679482,3.02349918 44.783347,3.86126645 44.783347,4.89808799 L44.783347,5.69140625 L44.7843133,5.69140625 Z" id="Shape"/>
                        <path d="M50.5192023,5.79093339 L50.5192023,4.8864926 C50.5192023,3.35396793 51.3898232,2.33937089 52.9783923,2.33937089 C54.5882196,2.33937089 55.3709087,3.40904605 55.3709087,4.79856086 L55.3709087,5.63632812 L51.324116,5.63632812 L51.324116,5.83441612 C51.324116,6.81615954 51.8314145,7.6094778 53.0112459,7.6094778 C53.8606086,7.6094778 54.3785362,7.1572574 54.5659951,6.51757812 L55.3158306,6.51757812 C55.1283717,7.53217516 54.1910773,8.24915707 53.0112459,8.24915707 C51.5444285,8.25012336 50.5192023,7.31282895 50.5192023,5.79093339 Z M51.324116,4.99664885 L54.5882196,4.99664885 L54.5882196,4.73188734 C54.5882196,3.72888569 54.0809211,2.97808388 52.9783923,2.97808388 C51.764741,2.97808388 51.324116,3.78299753 51.324116,4.81981908 L51.324116,4.99664885 Z" id="Shape"/>
                        <polygon id="Path" points="59.7172492 0.399074836 60.577241 0.399074836 60.577241 8.1177426 59.7172492 8.1177426"/>
                        <path d="M62.5291324,2.47175164 L63.3234169,2.47175164 L63.3234169,3.43127056 C63.5881785,2.79159128 64.2278577,2.33937089 65.2096012,2.33937089 C66.4773643,2.33937089 67.282278,3.19936266 67.282278,4.55602385 L67.282278,8.1177426 L66.4445107,8.1177426 L66.4445107,4.67680921 C66.4445107,3.7172903 66.0145148,3.06698191 64.9999178,3.06698191 C64.0732525,3.06698191 63.367866,3.62935855 63.367866,4.79856086 L63.367866,8.1177426 L62.5300987,8.1177426 L62.5300987,2.47175164 L62.5291324,2.47175164 Z" id="Path"/>
                        <path d="M68.7384663,5.75807977 L68.7384663,4.83141447 C68.7384663,3.44189967 69.6651316,2.33937089 71.2633635,2.33937089 C72.8625617,2.33937089 73.7776316,3.44189967 73.7776316,4.83141447 L73.7776316,5.75807977 C73.7776316,7.14759457 72.8625617,8.25012336 71.2633635,8.25012336 C69.6535362,8.25012336 68.7384663,7.14759457 68.7384663,5.75807977 Z M71.2633635,3.01190378 C70.1492393,3.01190378 69.554009,3.77236842 69.554009,4.84204359 L69.554009,5.74648438 C69.554009,6.81615954 70.1492393,7.57662418 71.2633635,7.57662418 C72.3765214,7.57662418 72.9727179,6.81615954 72.9727179,5.74648438 L72.9727179,4.84204359 C72.9727179,3.7733347 72.3765214,3.01190378 71.2633635,3.01190378 Z" id="Shape"/>
                        <polygon id="Path" points="77.505551 8.1177426 76.6233347 8.1177426 74.5506579 2.47175164 75.3777961 2.47175164 77.064926 7.27997533 78.7520559 2.47175164 79.5791941 2.47175164"/>
                        <path d="M84.2328125,8.1177426 L84.2328125,7.41235609 C83.9902755,7.80949836 83.2298109,8.25012336 82.2915502,8.25012336 C80.9571135,8.25012336 80.1521998,7.50028783 80.1521998,6.47506168 C80.1521998,5.38316201 81.0450452,4.71062911 82.3910773,4.71062911 C83.2839227,4.71062911 83.8801192,5.08554687 84.1989926,5.41601562 L84.1989926,4.36856497 C84.1989926,3.59650493 83.6916941,3.00127467 82.7872533,3.00127467 C82.0702714,3.00127467 81.6074219,3.33174342 81.375514,3.85063734 L80.6034539,3.85063734 C80.89044,2.91334293 81.6847245,2.33937089 82.7978824,2.33937089 C84.1980263,2.33937089 85.0357936,3.25444079 85.0357936,4.36856497 L85.0357936,8.1177426 L84.2328125,8.1177426 L84.2328125,8.1177426 Z M84.1989926,6.46346628 C84.1989926,5.75807977 83.3612253,5.26141036 82.5118627,5.26141036 C81.5745683,5.26141036 80.9464844,5.70203536 80.9464844,6.48569079 C80.9464844,7.26934622 81.597759,7.70997122 82.4683799,7.70997122 C83.3505962,7.70997122 84.1989926,7.1910773 84.1989926,6.46346628 Z" id="Shape"/>
                        <path d="M88.2805715,10.1024877 L88.2805715,9.61741365 C88.4786595,9.66186266 88.7105674,9.68312089 88.8873972,9.68312089 C89.2400905,9.68312089 89.4391447,9.59518914 89.4391447,9.38550576 C89.4391447,9.18741776 89.262315,9.11011513 88.9646998,9.08789062 L88.4574013,9.05503701 L88.6332648,8.22789885 C87.2766036,8.09551809 86.4832854,7.08092105 86.4832854,5.76870888 L86.4832854,4.81981908 C86.4832854,3.39745066 87.4205798,2.33840461 88.9859581,2.33840461 C90.4083265,2.33840461 91.3349918,3.2650699 91.400699,4.45553043 L90.6508635,4.45553043 C90.5407072,3.69506579 90.0662623,3.00030839 88.9965872,3.00030839 C87.8389803,3.00030839 87.2988281,3.75014391 87.2988281,4.80822368 L87.2988281,5.77837171 C87.2988281,6.83741776 87.8389803,7.58628701 88.9965872,7.58628701 C90.0662623,7.58628701 90.5407072,6.89152961 90.6508635,6.13106497 L91.400699,6.13106497 C91.3349918,7.26644737 90.4856291,8.16025905 89.1734169,8.23756168 L89.1067434,8.62310855 L89.2497533,8.63373766 C89.7348273,8.66659128 90.099116,8.86564556 90.099116,9.35071957 C90.099116,9.84738898 89.6691201,10.1662623 89.0072163,10.1662623 C88.7984992,10.1691612 88.5115132,10.1469367 88.2805715,10.1024877 Z" id="Path"/>
                        <path d="M96.7606702,8.1177426 L96.7606702,7.41235609 C96.5181332,7.80949836 95.7576686,8.25012336 94.8194079,8.25012336 C93.4849712,8.25012336 92.6800576,7.50028783 92.6800576,6.47506168 C92.6800576,5.38316201 93.572903,4.71062911 94.918935,4.71062911 C95.8117804,4.71062911 96.407977,5.08554688 96.7268503,5.41601562 L96.7268503,4.36856497 C96.7268503,3.59650493 96.2195518,3.00127467 95.315111,3.00127467 C94.5981291,3.00127467 94.1352796,3.33174342 93.9033717,3.85063734 L93.1313117,3.85063734 C93.4182977,2.91334293 94.2125822,2.33937089 95.3257401,2.33937089 C96.725884,2.33937089 97.5636513,3.25444079 97.5636513,4.36856497 L97.5636513,8.1177426 L96.7606702,8.1177426 L96.7606702,8.1177426 Z M96.7278166,6.46346628 C96.7278166,5.75807977 95.8900493,5.26141036 95.0406867,5.26141036 C94.1033923,5.26141036 93.4743421,5.70203536 93.4743421,6.48569079 C93.4743421,7.26934622 94.1256168,7.70997122 94.9962377,7.70997122 C95.8784539,7.70997122 96.7278166,7.1910773 96.7278166,6.46346628 Z M93.4859375,1.57890625 C93.6076891,0.861924342 93.8937089,0.354625822 94.5778372,0.354625822 C95.2059211,0.354625822 95.9779811,1.03875411 96.3316406,1.03875411 C96.6853002,1.03875411 96.7510074,0.663836349 96.8495683,0.311143092 L97.4013158,0.432894737 C97.2467105,1.05034951 97.0148026,1.63495066 96.3538651,1.63495066 C95.813713,1.63495066 95.1189556,0.950822368 94.6000617,0.950822368 C94.2145148,0.950822368 94.1372122,1.31511102 94.037685,1.69002878 L93.4859375,1.57890625 Z" id="Shape"/>
                        <path d="M99.0111431,5.75807977 L99.0111431,4.83141447 C99.0111431,3.44189967 99.9378084,2.33937089 101.53604,2.33937089 C103.135238,2.33937089 104.050308,3.44189967 104.050308,4.83141447 L104.050308,5.75807977 C104.050308,7.14759457 103.135238,8.25012336 101.53604,8.25012336 C99.926213,8.25012336 99.0111431,7.14759457 99.0111431,5.75807977 Z M101.53604,3.01190378 C100.421916,3.01190378 99.8266859,3.77236842 99.8266859,4.84204359 L99.8266859,5.74648438 C99.8266859,6.81615954 100.421916,7.57662418 101.53604,7.57662418 C102.649198,7.57662418 103.245395,6.81615954 103.245395,5.74648438 L103.245395,4.84204359 C103.245395,3.7733347 102.650164,3.01190378 101.53604,3.01190378 Z" id="Shape"/>
                        <path d="M108.076809,5.97839227 L108.076809,5.78030428 L108.892352,5.78030428 L108.892352,5.95616776 C108.892352,6.92631579 109.675041,7.58821957 110.9544,7.58821957 C112.222163,7.58821957 112.994223,7.03743832 112.994223,6.0556949 C112.994223,5.42664474 112.608676,4.98601974 111.891694,4.79856086 L109.707895,4.2255551 C108.593771,3.93856908 108.17537,3.28826069 108.17537,2.40604441 C108.17537,1.03875411 109.255674,0.244469572 110.844243,0.244469572 C112.431846,0.244469572 113.54597,1.13731497 113.54597,2.45049342 L113.54597,2.6379523 L112.741057,2.6379523 L112.741057,2.47271793 C112.741057,1.55764803 112.03567,0.928597862 110.844243,0.928597862 C109.763939,0.928597862 109.002508,1.42526727 109.002508,2.34033717 C109.002508,2.98001645 109.300123,3.34333882 109.962027,3.52016859 L112.200905,4.11539885 C113.149794,4.36953125 113.822327,4.99761513 113.822327,5.98998766 C113.822327,7.40172697 112.598047,8.27234786 110.955366,8.27234786 C109.311719,8.27234786 108.076809,7.39013158 108.076809,5.97839227 Z" id="Path"/>
                        <path d="M115.86215,0.476377467 C116.18199,0.476377467 116.391674,0.686060855 116.391674,0.983675987 C116.391674,1.28129112 116.18199,1.49097451 115.86215,1.49097451 C115.542311,1.49097451 115.332627,1.28129112 115.332627,0.983675987 C115.332627,0.686060855 115.542311,0.476377467 115.86215,0.476377467 Z M115.44375,2.47175164 L116.281517,2.47175164 L116.281517,8.1177426 L115.44375,8.1177426 L115.44375,2.47175164 Z" id="Shape"/>
                        <path d="M121.949733,8.1177426 L121.949733,7.41235609 C121.707196,7.80949836 120.946731,8.25012336 120.00847,8.25012336 C118.674034,8.25012336 117.86912,7.50028783 117.86912,6.47506168 C117.86912,5.38316201 118.761965,4.71062911 120.107998,4.71062911 C121.000843,4.71062911 121.597039,5.08554687 121.915913,5.41601562 L121.915913,4.36856497 C121.915913,3.59650493 121.408614,3.00127467 120.504174,3.00127467 C119.787192,3.00127467 119.324342,3.33174342 119.092434,3.85063734 L118.320374,3.85063734 C118.60736,2.91334293 119.401645,2.33937089 120.514803,2.33937089 C121.914947,2.33937089 122.752714,3.25444079 122.752714,4.36856497 L122.752714,8.1177426 L121.949733,8.1177426 L121.949733,8.1177426 Z M121.916879,6.46346628 C121.916879,5.75807977 121.079112,5.26141036 120.229749,5.26141036 C119.292455,5.26141036 118.663405,5.70203536 118.663405,6.48569079 C118.663405,7.26934622 119.314679,7.70997122 120.1853,7.70997122 C121.067516,7.70997122 121.916879,7.1910773 121.916879,6.46346628 Z" id="Shape"/>
                        <path d="M124.298766,8.72456826 L125.125905,8.72456826 C125.434149,9.26472039 125.975267,9.5072574 126.747327,9.5072574 C127.729071,9.5072574 128.401604,8.95550987 128.401604,8.09551809 L128.401604,6.81615954 C128.22574,7.33408717 127.45368,7.8858347 126.50479,7.8858347 C125.037973,7.8858347 124.200206,6.83838405 124.200206,5.58125 L124.200206,4.64395559 C124.200206,3.36459704 125.027344,2.33937089 126.516386,2.33937089 C127.575432,2.33937089 128.203516,2.91237664 128.435424,3.40904605 L128.435424,2.47175164 L129.240337,2.47175164 L129.240337,8.1177426 C129.240337,9.2869449 128.181291,10.1691612 126.748294,10.1691612 C125.622574,10.1691612 124.607977,9.65026727 124.298766,8.72456826 Z M128.400637,5.49331826 L128.400637,4.76570724 C128.400637,3.80618832 127.673026,3.02349918 126.702878,3.02349918 C125.60035,3.02349918 125.026377,3.62935855 125.026377,4.71062911 L125.026377,5.51554276 C125.026377,6.57458882 125.588754,7.2026727 126.670025,7.2026727 C127.629544,7.2026727 128.400637,6.56299342 128.400637,5.49331826 Z" id="Shape"/>
                        <path d="M131.026028,2.47175164 L131.808717,2.47175164 L131.808717,3.77236842 C132.0184,2.90174753 132.62426,2.43793174 133.650452,2.43793174 L133.782833,2.43793174 L133.782833,3.22062089 L133.617599,3.22062089 C132.547924,3.22062089 131.864762,3.9260074 131.864762,5.34837582 L131.864762,8.11581003 L131.026994,8.11581003 L131.026994,2.47175164 L131.026028,2.47175164 Z" id="Path"/>
                        <path d="M135.393627,0.476377467 C135.713466,0.476377467 135.92315,0.686060855 135.92315,0.983675987 C135.92315,1.28129112 135.713466,1.49097451 135.393627,1.49097451 C135.073787,1.49097451 134.864104,1.28129112 134.864104,0.983675987 C134.864104,0.686060855 135.073787,0.476377467 135.393627,0.476377467 Z M134.97426,2.47175164 L135.812027,2.47175164 L135.812027,8.1177426 L134.97426,8.1177426 L134.97426,2.47175164 Z" id="Shape"/>
                    </g>
                </g>
            </g>
        </g>
    </g>
</svg></svg>